<svg width="58" height="51" viewBox="0 0 58 51" fill="none" xmlns="http://www.w3.org/2000/svg">
<path d="M53.073 21.5972L35.2314 50.4863L5.93928 33.3668" stroke="#1E5C8D" stroke-width="0.5"/>
<path d="M27.7573 31.0703C27.6978 31.8936 27.393 32.5417 26.8431 33.0147C26.2967 33.4877 25.5751 33.7241 24.6784 33.7241C23.6977 33.7241 22.9253 33.3948 22.3614 32.7361C21.8009 32.074 21.5208 31.1666 21.5208 30.014V29.5463C21.5208 28.8105 21.6504 28.1624 21.9095 27.6018C22.1687 27.0412 22.5383 26.612 23.0181 26.3143C23.5015 26.013 24.0619 25.8623 24.6994 25.8623C25.5821 25.8623 26.2932 26.0988 26.8326 26.5718C27.372 27.0448 27.6838 27.7086 27.7679 28.5635H26.1916C26.1531 28.0696 26.0147 27.7122 25.7765 27.4915C25.5418 27.2673 25.1828 27.1551 24.6994 27.1551C24.174 27.1551 23.78 27.3443 23.5173 27.7227C23.2581 28.0975 23.125 28.6809 23.1179 29.4726V30.0507C23.1179 30.8775 23.2423 31.4819 23.491 31.8638C23.7432 32.2457 24.139 32.4366 24.6784 32.4366C25.1653 32.4366 25.5279 32.3263 25.766 32.1056C26.0077 31.8813 26.1461 31.5362 26.1811 31.0703H27.7573ZM31.3091 33.7241C30.4755 33.7241 29.7959 33.4684 29.2705 32.9569C28.7486 32.4454 28.4877 31.764 28.4877 30.9126V30.7654C28.4877 30.1944 28.598 29.6846 28.8187 29.2362C29.0393 28.7843 29.3511 28.4374 29.7539 28.1957C30.1602 27.9504 30.6225 27.8278 31.1409 27.8278C31.9186 27.8278 32.5298 28.073 32.9746 28.5635C33.423 29.054 33.6472 29.7494 33.6472 30.6498V31.27H30.0271C30.0761 31.6413 30.2233 31.9391 30.4684 32.1633C30.7171 32.3875 31.0306 32.4997 31.4089 32.4997C31.9939 32.4997 32.451 32.2877 32.7802 31.8638L33.5263 32.6994C33.2986 33.0217 32.9904 33.274 32.6016 33.4561C32.2128 33.6348 31.782 33.7241 31.3091 33.7241ZM31.1357 29.0575C30.8345 29.0575 30.5893 29.1591 30.4002 29.3623C30.2145 29.5655 30.0954 29.8563 30.0428 30.2346H32.155V30.1138C32.148 29.7775 32.0569 29.5182 31.8818 29.336C31.7066 29.1504 31.458 29.0575 31.1357 29.0575ZM39.6316 30.8285C39.6316 31.7044 39.4319 32.4069 39.0326 32.9358C38.6368 33.4614 38.1009 33.7241 37.4249 33.7241C36.8504 33.7241 36.3863 33.5244 36.0325 33.125V35.8052H34.5141V27.9329H35.9222L35.9747 28.49C36.3425 28.0485 36.8224 27.8278 37.4144 27.8278C38.1149 27.8278 38.6596 28.087 39.0484 28.6055C39.4372 29.1241 39.6316 29.8388 39.6316 30.7497V30.8285ZM38.1131 30.7181C38.1131 30.1891 38.0186 29.781 37.8294 29.4937C37.6438 29.2064 37.3723 29.0628 37.015 29.0628C36.5386 29.0628 36.2112 29.245 36.0325 29.6093V31.9374C36.2182 32.3123 36.5492 32.4997 37.0256 32.4997C37.7506 32.4997 38.1131 31.9059 38.1131 30.7181ZM40.6771 33.619V27.9329H43.052C43.8261 27.9329 44.4198 28.0696 44.8331 28.3428C45.2464 28.6161 45.4531 29.0085 45.4531 29.5199C45.4531 29.7827 45.3656 30.0192 45.1904 30.2294C45.0188 30.4361 44.7666 30.5956 44.4338 30.7077C44.8401 30.7847 45.1589 30.9371 45.3901 31.1648C45.6247 31.3891 45.7421 31.6658 45.7421 31.9952C45.7421 32.5242 45.5424 32.9271 45.1431 33.2039C44.7473 33.4807 44.1711 33.619 43.4145 33.619H40.6771ZM42.1955 31.2594V32.4051H43.4198C43.9557 32.4051 44.2236 32.2176 44.2236 31.8428C44.2236 31.4609 43.968 31.2664 43.4565 31.2594H42.1955ZM42.1955 30.2399H43.1361C43.6685 30.2329 43.9347 30.0612 43.9347 29.7249C43.9347 29.5182 43.8611 29.3711 43.714 29.2835C43.5704 29.1959 43.3497 29.1521 43.052 29.1521H42.1955V30.2399ZM50.0977 27.9329H51.6161V33.619H50.0977V30.1085L48.1957 33.619H46.672V27.9329H48.1957V31.4381L50.0977 27.9329ZM55.1417 32.4997C55.4218 32.4997 55.6495 32.4226 55.8246 32.2684C55.9998 32.1143 56.0909 31.9093 56.0979 31.6536H57.5217C57.5183 32.039 57.4132 32.3928 57.2065 32.7151C56.9999 33.034 56.7161 33.2827 56.3553 33.4614C55.9981 33.6366 55.6023 33.7241 55.1679 33.7241C54.3553 33.7241 53.7143 33.4666 53.2449 32.9516C52.7756 32.4331 52.5409 31.7184 52.5409 30.8075V30.7077C52.5409 29.8318 52.7738 29.1328 53.2396 28.6108C53.7055 28.0888 54.3448 27.8278 55.1574 27.8278C55.8685 27.8278 56.4376 28.031 56.865 28.4374C57.2958 28.8403 57.5147 29.3781 57.5217 30.0507H56.0979C56.0909 29.7564 55.9998 29.5182 55.8246 29.336C55.6495 29.1504 55.4184 29.0575 55.1311 29.0575C54.7774 29.0575 54.5094 29.1871 54.3273 29.4464C54.1486 29.7021 54.0593 30.1191 54.0593 30.6971V30.8548C54.0593 31.4399 54.1486 31.8603 54.3273 32.116C54.5059 32.3718 54.7774 32.4997 55.1417 32.4997Z" fill="white"/>
<path d="M23.5144 6.61719L48.2796 20.7946L37.0953 38.9844" stroke="#1E5C8D" stroke-width="0.5"/>
<path d="M33.6333 44.8687L8.86816 30.4241L20.3187 11.6997" stroke="#1E5C8D" stroke-width="0.5"/>
<path d="M6.23662 20.9053C6.17708 21.7287 5.87232 22.3769 5.32239 22.8499C4.77597 23.3229 4.05441 23.5594 3.15771 23.5594C2.17694 23.5594 1.40459 23.2301 0.840655 22.5713C0.280219 21.9091 0 21.0016 0 19.8489V19.3812C0 18.6454 0.129601 17.9972 0.388803 17.4366C0.648002 16.876 1.01754 16.4467 1.49741 16.149C1.98079 15.8476 2.54123 15.6969 3.17872 15.6969C4.06141 15.6969 4.77246 15.9335 5.31188 16.4065C5.85127 16.8795 6.16303 17.5434 6.24714 18.3984H4.67089C4.63235 17.9044 4.494 17.547 4.25581 17.3263C4.02113 17.102 3.6621 16.9899 3.17872 16.9899C2.65332 16.9899 2.25926 17.1791 1.99655 17.5575C1.73735 17.9324 1.60425 18.5157 1.59724 19.3076V19.8857C1.59724 20.7126 1.72159 21.317 1.97028 21.6989C2.22248 22.0808 2.61829 22.2718 3.15771 22.2718C3.64459 22.2718 4.00712 22.1614 4.2453 21.9407C4.48699 21.7165 4.62535 21.3713 4.66038 20.9053H6.23662ZM11.89 18.987H10.0668V23.4543H8.54316V18.987H6.7515V17.7677H11.89V18.987ZM17.7746 20.6636C17.7746 21.5395 17.5749 22.242 17.1756 22.7711C16.7798 23.2966 16.2439 23.5594 15.5679 23.5594C14.9934 23.5594 14.5293 23.3597 14.1756 22.9603V25.6406H12.6571V17.7677H14.0652L14.1178 18.3248C14.4855 17.8833 14.9654 17.6626 15.5574 17.6626C16.2579 17.6626 16.8026 17.9218 17.1914 18.4404C17.5802 18.959 17.7746 19.6737 17.7746 20.5847V20.6636ZM16.2561 20.5532C16.2561 20.0241 16.1616 19.616 15.9724 19.3286C15.7868 19.0413 15.5153 18.8977 15.158 18.8977C14.6817 18.8977 14.3542 19.0799 14.1756 19.4442V21.7725C14.3612 22.1474 14.6922 22.3348 15.1686 22.3348C15.8936 22.3348 16.2561 21.741 16.2561 20.5532ZM18.4839 20.5584C18.4839 19.9944 18.5925 19.4915 18.8096 19.0501C19.0268 18.6086 19.3386 18.267 19.7449 18.0252C20.1547 17.7835 20.6293 17.6626 21.1687 17.6626C21.9358 17.6626 22.5611 17.8973 23.0444 18.3669C23.5313 18.8363 23.8027 19.4741 23.8588 20.2799L23.8693 20.6688C23.8693 21.5413 23.6259 22.242 23.139 22.7711C22.6521 23.2966 21.9989 23.5594 21.1792 23.5594C20.3596 23.5594 19.7046 23.2966 19.2142 22.7711C18.7273 22.2455 18.4839 21.5307 18.4839 20.6268V20.5584ZM20.0023 20.6688C20.0023 21.2084 20.1039 21.6218 20.3071 21.9091C20.5102 22.1929 20.801 22.3348 21.1792 22.3348C21.547 22.3348 21.8343 22.1947 22.0409 21.9144C22.2476 21.6306 22.3509 21.1786 22.3509 20.5584C22.3509 20.0294 22.2476 19.6194 22.0409 19.3286C21.8343 19.0378 21.5435 18.8924 21.1687 18.8924C20.7974 18.8924 20.5102 19.0378 20.3071 19.3286C20.1039 19.616 20.0023 20.0626 20.0023 20.6688ZM28.2302 17.7677H29.7486V23.4543H28.2302V19.9435L26.3283 23.4543H24.8045V17.7677H26.3283V21.2732L28.2302 17.7677ZM29.1234 15.4604C29.1234 15.9265 28.9553 16.3031 28.619 16.5904C28.2862 16.8778 27.8484 17.0214 27.3055 17.0214C26.7626 17.0214 26.323 16.8795 25.9867 16.5957C25.6539 16.3119 25.4876 15.9335 25.4876 15.4604H26.5647C26.5647 15.6812 26.6295 15.8529 26.7591 15.9755C26.8922 16.0947 27.0743 16.1542 27.3055 16.1542C27.5332 16.1542 27.7118 16.0947 27.8414 15.9755C27.971 15.8529 28.0358 15.6812 28.0358 15.4604H29.1234Z" fill="white"/>
<path d="M4.60791 29.8896L22.4495 1L51.7416 18.1198" stroke="#1E5C8D" stroke-width="0.5"/>
</svg>
