<svg width="30" height="40" viewBox="0 0 30 40" fill="none" xmlns="http://www.w3.org/2000/svg">
<path d="M26.1148 0H3.88516C1.7429 0 0 1.72625 0 3.84805V36.152C0 38.2737 1.7429 40 3.88516 40H26.1148C28.2571 40 30 38.2737 30 36.152V3.84805C30 1.72625 28.2571 0 26.1148 0ZM5.32501 6.64813C5.32501 6.00094 5.85475 5.47625 6.50818 5.47625H23.4917C24.1452 5.47625 24.6749 6.00094 24.6749 6.64813V8.96203C24.6749 9.60922 24.1452 10.1339 23.4917 10.1339H6.50818C5.85475 10.1339 5.32501 9.60922 5.32501 8.96203V6.64813ZM9.30845 32.9622C9.30845 33.6094 8.7787 34.1341 8.12527 34.1341H6.50826C5.85483 34.1341 5.32508 33.6094 5.32508 32.9622V31.8519C5.32508 31.2047 5.85483 30.68 6.50826 30.68H8.12527C8.7787 30.68 9.30845 31.2047 9.30845 31.8519V32.9622ZM9.30845 26.027C9.30845 26.6742 8.7787 27.1989 8.12527 27.1989H6.50826C5.85483 27.1989 5.32508 26.6742 5.32508 26.027V24.9167C5.32508 24.2695 5.85483 23.7448 6.50826 23.7448H8.12527C8.7787 23.7448 9.30845 24.2695 9.30845 24.9167V26.027ZM17.0886 32.9622C17.0886 33.6094 16.5589 34.1341 15.9054 34.1341H14.2884C13.6349 34.1341 13.1053 33.6094 13.1053 32.9622V31.8519C13.1053 31.2047 13.6349 30.68 14.2884 30.68H15.9054C16.5589 30.68 17.0886 31.2047 17.0886 31.8519V32.9622ZM17.0886 26.027C17.0886 26.6742 16.5589 27.1989 15.9054 27.1989H14.2884C13.6349 27.1989 13.1053 26.6742 13.1053 26.027V24.9167C13.1053 24.2695 13.6349 23.7448 14.2884 23.7448H15.9054C16.5589 23.7448 17.0886 24.2695 17.0886 24.9167V26.027ZM17.0886 19.0918C17.0886 19.7391 16.5589 20.2637 15.9054 20.2637H6.50818C5.85475 20.2637 5.32501 19.739 5.32501 19.0918V17.9815C5.32501 17.3343 5.85475 16.8096 6.50818 16.8096H15.9054C16.5589 16.8096 17.0886 17.3343 17.0886 17.9815V19.0918ZM24.8688 32.9622C24.8688 33.6094 24.3391 34.1341 23.6856 34.1341H22.0686C21.4152 34.1341 20.8854 33.6094 20.8854 32.9622V31.8519C20.8854 31.2047 21.4152 30.68 22.0686 30.68H23.6856C24.3391 30.68 24.8688 31.2047 24.8688 31.8519V32.9622ZM24.8688 26.027C24.8688 26.6742 24.3391 27.1989 23.6856 27.1989H22.0686C21.4152 27.1989 20.8854 26.6742 20.8854 26.027V24.9167C20.8854 24.2695 21.4152 23.7448 22.0686 23.7448H23.6856C24.3391 23.7448 24.8688 24.2695 24.8688 24.9167V26.027ZM24.8688 19.0918C24.8688 19.7391 24.3391 20.2637 23.6856 20.2637H22.0686C21.4152 20.2637 20.8854 19.739 20.8854 19.0918V17.9815C20.8854 17.3343 21.4152 16.8096 22.0686 16.8096H23.6856C24.3391 16.8096 24.8688 17.3343 24.8688 17.9815V19.0918Z" fill="#4B667C"/>
</svg>
