<svg width="40" height="40" viewBox="0 0 40 40" fill="none" xmlns="http://www.w3.org/2000/svg">
<path d="M34.1422 5.85781C30.3646 2.08039 25.3422 0 20 0C14.6578 0 9.63539 2.08039 5.85781 5.85781C2.08039 9.63539 0 14.6578 0 20C0 25.3422 2.08039 30.3646 5.85781 34.1422C9.63539 37.9196 14.6578 40 20 40C25.3422 40 30.3646 37.9196 34.1422 34.1422C37.9196 30.3646 40 25.3422 40 20C40 14.6578 37.9196 9.63539 34.1422 5.85781ZM36.8734 18.8281V21.1719H33.7459V18.8281H36.8734ZM9.45148 11.1088L7.24 8.89727L8.89727 7.24L11.1088 9.45148L9.45148 11.1088ZM11.1088 30.5485L8.89727 32.76L7.24 31.1027L9.45148 28.8913L11.1088 30.5485ZM28.2728 18.8281V21.1719H18.8281V11.7272H21.1719V18.8281H28.2728ZM21.1719 6.25406H18.8281V3.12656H21.1719V6.25406ZM18.8281 33.7459H21.1719V36.8734H18.8281V33.7459ZM28.8913 30.5485L30.5485 28.8913L32.76 31.1027L31.1027 32.76L28.8913 30.5485ZM30.5485 11.1088L28.8913 9.45148L31.1027 7.24L32.76 8.89727L30.5485 11.1088ZM6.25406 18.8281V21.1719H3.12656V18.8281H6.25406Z" fill="#4B667C"/>
</svg>
