<svg width="40" height="40" viewBox="0 0 40 40" fill="none" xmlns="http://www.w3.org/2000/svg">
<path d="M30.4307 6.82984C30.4307 5.89141 30.0645 5.00797 29.4007 4.34422L26.0865 1.03C25.4319 0.375391 24.5028 0 23.5781 0H23.3767V7.03125H30.4308L30.4307 6.82984Z" fill="#4B667C"/>
<path d="M21.4013 24.1826C21.6256 23.5016 22.0171 22.8677 22.5274 22.3538L30.462 14.4512V9.375H22.2276C21.5799 9.375 21.0938 8.85086 21.0938 8.20312V0H3.51563C1.57703 0 0 1.57703 0 3.51562V36.4844C0 38.423 1.57703 40 3.51563 40H26.9151C28.8537 40 30.462 38.423 30.462 36.4844V27.7382L29.1742 28.9948C28.6524 29.512 28.0413 29.8885 27.3523 30.1186L23.6261 31.3626L23.0585 31.3935C22.12 31.3935 21.232 30.9369 20.6804 30.1724C20.1334 29.4114 19.9846 28.4249 20.2821 27.5334L21.4013 24.1826ZM5.85938 21.0938H17.5401C18.1878 21.0938 18.712 21.6179 18.712 22.2656C18.712 22.9134 18.1878 23.4375 17.5401 23.4375H5.85938C5.21165 23.4375 4.6875 22.9134 4.6875 22.2656C4.6875 21.6179 5.21165 21.0938 5.85938 21.0938ZM4.6875 17.5781C4.6875 16.9304 5.21165 16.4062 5.85938 16.4062H17.5401C18.1878 16.4062 18.712 16.9304 18.712 17.5781C18.712 18.2259 18.1878 18.75 17.5401 18.75H5.85938C5.21165 18.75 4.6875 18.2259 4.6875 17.5781ZM4.6875 26.9531C4.6875 26.3054 5.21165 25.7812 5.85938 25.7812H17.5401C18.1878 25.7812 18.712 26.3054 18.712 26.9531C18.712 27.6009 18.1878 28.125 17.5401 28.125H5.85938C5.21165 28.125 4.6875 27.6009 4.6875 26.9531ZM22.2276 32.8125C22.8753 32.8125 23.3995 33.3366 23.3995 33.9844C23.3995 34.6321 22.8754 35.1562 22.2276 35.1562H15.1963C14.5486 35.1562 14.0245 34.6321 14.0245 33.9844C14.0245 33.3366 14.5486 32.8125 15.1963 32.8125H22.2276ZM5.85938 14.0625C5.21165 14.0625 4.6875 13.5384 4.6875 12.8906C4.6875 12.2429 5.21165 11.7188 5.85938 11.7188H22.2276C22.8753 11.7188 23.3995 12.2429 23.3995 12.8906C23.3995 13.5384 22.8753 14.0625 22.2276 14.0625H5.85938Z" fill="#4B667C"/>
<path d="M23.5243 25.2194L22.5047 28.2781C22.3519 28.7363 22.7879 29.1721 23.2462 29.0191L26.303 27.9981L23.5243 25.2194Z" fill="#4B667C"/>
<path d="M32.6259 15.5709L24.908 23.2887L28.2365 26.6173C29.9809 24.8726 33.375 21.478 35.954 18.899L32.6259 15.5709Z" fill="#4B667C"/>
<path d="M39.3113 12.2097C38.8994 11.7954 38.2928 11.5585 37.6496 11.5585C37.0064 11.5585 36.3999 11.7954 35.9856 12.2108L34.2827 13.9137L37.6107 17.2417C38.5429 16.3094 39.1873 15.665 39.3137 15.5387C40.2291 14.6219 40.229 13.1286 39.3113 12.2097Z" fill="#4B667C"/>
</svg>
