<svg width="40" height="43" viewBox="0 0 40 43" fill="none" xmlns="http://www.w3.org/2000/svg">
<path d="M11.2414 21.5515H2.72974C3.81528 24.5598 5.18386 27.8323 6.75258 30.4686C9.17594 34.5409 12.2574 37.7474 13.8785 39.2965C15.0674 40.4326 16.2238 41.401 17.2223 42.0972C17.8505 42.5351 18.3496 42.8179 18.7508 43V29.1586C14.876 28.5894 11.8033 25.4768 11.2414 21.5515V21.5515Z" fill="#4B667C"/>
<path d="M21.3115 29.1586V42.9715C21.7018 42.7887 22.182 42.5125 22.7779 42.0968C23.7763 41.4007 24.9325 40.4322 26.1216 39.2962C27.7428 37.7474 30.8242 34.5405 33.2476 30.4686C34.8166 27.8323 36.1849 24.5598 37.2701 21.5515H28.8209C28.259 25.4768 25.1864 28.5894 21.3115 29.1586V29.1586Z" fill="#4B667C"/>
<path d="M18.7204 11.3546V0H11.1323C10.5238 0 9.99951 0.433701 9.87774 1.03734C9.86706 1.09147 8.69375 6.50059 0.622157 11.4015C0.137356 11.6958 -0.0993767 12.2775 0.0392304 12.8326C0.093313 13.0481 0.741657 15.6159 1.83788 18.9575H11.2415C11.8017 15.0424 14.8598 11.9356 18.7204 11.3546Z" fill="#4B667C"/>
<path d="M28.8208 18.9575H38.1622C39.2585 15.6162 39.9068 13.0481 39.9606 12.8326C40.0995 12.2775 39.8628 11.6958 39.378 11.4015C35.1961 8.86266 32.9007 6.17319 31.7118 4.36391C30.4653 2.46803 30.1408 1.11771 30.1214 1.03242C30.0048 0.423203 29.4812 0 28.8678 0H21.281V11.3461C25.1704 11.9035 28.2573 15.0217 28.8208 18.9575Z" fill="#4B667C"/>
<path d="M20.0313 13.8502C16.5454 13.8502 13.7095 16.7234 13.7095 20.2543C13.7095 23.7856 16.5454 26.6585 20.0313 26.6585C23.5169 26.6585 26.3528 23.7856 26.3528 20.2543C26.3528 16.7234 23.5169 13.8502 20.0313 13.8502ZM23.5315 19.7006L19.711 23.5707C19.4704 23.8145 19.1446 23.9506 18.8059 23.9506C18.7855 23.9506 18.7647 23.9503 18.7437 23.949C18.3833 23.9313 18.0468 23.7604 17.8172 23.4779L16.1834 21.4662C15.7342 20.9131 15.8125 20.0959 16.3586 19.6409C16.9046 19.1855 17.7113 19.2649 18.1604 19.818L18.8982 20.7261L21.7212 17.8667C22.2212 17.3602 23.0318 17.3602 23.5315 17.8667C24.0318 18.3729 24.0318 19.194 23.5315 19.7006V19.7006Z" fill="#4B667C"/>
</svg>
