<svg width="50" height="50" viewBox="0 0 50 50" fill="none" xmlns="http://www.w3.org/2000/svg">
<path d="M25 0C11.2144 0 0 11.2144 0 25C0 38.7856 11.2144 50 25 50C38.7856 50 50 38.7856 50 25C50 11.2144 38.7856 0 25 0ZM25 39.5832C23.8499 39.5832 22.9168 38.6501 22.9168 37.5C22.9168 36.3499 23.8499 35.4168 25 35.4168C26.1501 35.4168 27.0832 36.3499 27.0832 37.5C27.0832 38.6501 26.1501 39.5832 25 39.5832V39.5832ZM28.2978 26.3374C27.5604 26.6769 27.0832 27.4208 27.0832 28.2314V29.1668C27.0832 30.3165 26.152 31.25 25 31.25C23.848 31.25 22.9168 30.3165 22.9168 29.1668V28.2314C22.9168 25.7999 24.3458 23.571 26.5522 22.5521C28.6751 21.5752 30.2082 18.9812 30.2082 17.7082C30.2082 14.8376 27.8728 12.5 25 12.5C22.1272 12.5 19.7918 14.8376 19.7918 17.7082C19.7918 18.8583 18.8602 19.7918 17.7082 19.7918C16.5562 19.7918 15.625 18.8583 15.625 17.7082C15.625 12.5397 19.8311 8.33321 25 8.33321C30.1689 8.33321 34.375 12.5397 34.375 17.7082C34.375 20.5231 31.9332 24.6605 28.2978 26.3374Z" fill="#4B667C"/>
</svg>
