<svg width="110" height="95" viewBox="0 0 110 95" fill="none" xmlns="http://www.w3.org/2000/svg">
<g clip-path="url(#clip0)">
<path d="M100.5 39L67 93L12 61" stroke="#1E5C8D"/>
<path d="M52.9666 56.7064C52.8549 58.2454 52.2826 59.4568 51.2501 60.341C50.2241 61.225 48.8693 61.6671 47.1856 61.6671C45.3441 61.6671 43.8939 61.0515 42.835 59.8203C41.7827 58.5826 41.2566 56.8864 41.2566 54.7319V53.8577C41.2566 52.4825 41.4999 51.2709 41.9865 50.2231C42.4732 49.1753 43.1671 48.3731 44.0681 47.8165C44.9757 47.2533 46.028 46.9717 47.225 46.9717C48.8824 46.9717 50.2175 47.4138 51.2303 48.2979C52.2431 49.1819 52.8285 50.4229 52.9864 52.0208H50.0267C49.9544 51.0975 49.6946 50.4295 49.2474 50.0169C48.8067 49.5978 48.1326 49.3883 47.225 49.3883C46.2385 49.3883 45.4987 49.7419 45.0053 50.4491C44.5186 51.1498 44.2688 52.2402 44.2555 53.7201V54.8007C44.2555 56.3462 44.489 57.4759 44.9561 58.1897C45.4295 58.9034 46.1727 59.2604 47.1856 59.2604C48.0997 59.2604 48.7805 59.0541 49.2277 58.6416C49.6815 58.2225 49.9413 57.5774 50.0071 56.7064H52.9666ZM59.6356 61.6671C58.0703 61.6671 56.7943 61.1889 55.8078 60.2329C54.8279 59.2767 54.3379 58.0031 54.3379 56.4117V56.1366C54.3379 55.0693 54.545 54.1163 54.9594 53.2781C55.3737 52.4334 55.9591 51.785 56.7154 51.3332C57.4783 50.8747 58.3464 50.6456 59.3198 50.6456C60.7799 50.6456 61.9276 51.104 62.7628 52.0208C63.6047 52.9376 64.0256 54.2375 64.0256 55.9206V57.0797H57.2285C57.3205 57.7738 57.5967 58.3304 58.0571 58.7495C58.524 59.1687 59.1127 59.3782 59.823 59.3782C60.9213 59.3782 61.7796 58.982 62.3978 58.1897L63.7987 59.7515C63.3712 60.354 62.7925 60.8256 62.0624 61.166C61.3324 61.5001 60.5234 61.6671 59.6356 61.6671ZM59.3099 52.9442C58.7443 52.9442 58.284 53.134 57.9289 53.5139C57.5803 53.8937 57.3567 54.4372 57.258 55.1445H61.2238V54.9186C61.2107 54.2899 61.0397 53.8053 60.7109 53.4648C60.382 53.1177 59.9151 52.9442 59.3099 52.9442ZM75.2622 56.2545C75.2622 57.8918 74.8873 59.2048 74.1375 60.1935C73.3943 61.1758 72.388 61.6671 71.1188 61.6671C70.0401 61.6671 69.1686 61.2938 68.5044 60.5472V65.5569H65.6533V50.842H68.2973L68.3959 51.8833C69.0865 51.0581 69.9875 50.6456 71.099 50.6456C72.4143 50.6456 73.4371 51.1301 74.1671 52.0993C74.8972 53.0686 75.2622 54.4045 75.2622 56.1072V56.2545ZM72.4111 56.0482C72.4111 55.0594 72.2335 54.2965 71.8783 53.7595C71.5298 53.2225 71.0201 52.954 70.3492 52.954C69.4547 52.954 68.8399 53.2945 68.5044 53.9755V58.3272C68.853 59.028 69.4745 59.3782 70.369 59.3782C71.7304 59.3782 72.4111 58.2683 72.4111 56.0482ZM77.2253 61.4706V50.842H81.6844C83.138 50.842 84.2527 51.0975 85.0287 51.6082C85.8048 52.119 86.1928 52.8525 86.1928 53.8085C86.1928 54.2998 86.0285 54.7418 85.6996 55.1347C85.3774 55.5211 84.9038 55.8191 84.279 56.0286C85.0419 56.1727 85.6405 56.4575 86.0745 56.8832C86.5151 57.3023 86.7354 57.8197 86.7354 58.4353C86.7354 59.424 86.3606 60.1772 85.6108 60.6946C84.8676 61.2119 83.7857 61.4706 82.3651 61.4706H77.2253ZM80.0764 57.06V59.2014H82.375C83.3813 59.2014 83.8844 58.851 83.8844 58.1504C83.8844 57.4365 83.4043 57.0731 82.4441 57.06H80.0764ZM80.0764 55.1543H81.8423C82.842 55.1412 83.3418 54.8204 83.3418 54.1917C83.3418 53.8053 83.2037 53.5303 82.9275 53.3665C82.6578 53.2028 82.2435 53.121 81.6844 53.121H80.0764V55.1543ZM94.9138 50.842H97.7648V61.4706H94.9138V54.9088L91.3425 61.4706H88.4816V50.842H91.3425V57.394L94.9138 50.842ZM104.384 59.3782C104.911 59.3782 105.338 59.2342 105.667 58.946C105.996 58.6579 106.167 58.2748 106.18 57.7968H108.853C108.847 58.5171 108.65 59.1785 108.262 59.781C107.873 60.377 107.341 60.8419 106.663 61.1758C105.992 61.5033 105.249 61.6671 104.434 61.6671C102.908 61.6671 101.704 61.1857 100.823 60.2231C99.9418 59.2538 99.5011 57.9179 99.5011 56.2153V56.0286C99.5011 54.3914 99.9384 53.085 100.813 52.1092C101.688 51.1335 102.888 50.6456 104.414 50.6456C105.749 50.6456 106.818 51.0254 107.62 51.785C108.429 52.5381 108.84 53.5433 108.853 54.8007H106.18C106.167 54.2506 105.996 53.8053 105.667 53.4648C105.338 53.1177 104.904 52.9442 104.365 52.9442C103.7 52.9442 103.197 53.1865 102.855 53.6711C102.52 54.1491 102.352 54.9284 102.352 56.009V56.3037C102.352 57.3973 102.52 58.1831 102.855 58.6611C103.191 59.1393 103.7 59.3782 104.384 59.3782Z" fill="white"/>
<path d="M45 11L91.5 37.5L70.5 71.5" stroke="#1E5C8D"/>
<path d="M64 82.5L17.5 55.5L39 20.5" stroke="#1E5C8D"/>
<path d="M12.5585 37.7065C12.4467 39.2455 11.8745 40.4569 10.8419 41.3411C9.81593 42.2252 8.4611 42.6672 6.77742 42.6672C4.9359 42.6672 3.48571 42.0516 2.42683 40.8204C1.37454 39.5827 0.848389 37.8866 0.848389 35.7321V34.8579C0.848389 33.4826 1.09173 32.2711 1.57842 31.2233C2.0651 30.1755 2.75897 29.3732 3.65999 28.8166C4.5676 28.2535 5.6199 27.9718 6.81688 27.9718C8.47424 27.9718 9.80935 28.414 10.8222 29.298C11.835 30.1821 12.4203 31.423 12.5783 33.0209H9.61862C9.54627 32.0976 9.28649 31.4296 8.83926 31.0171C8.39861 30.598 7.72449 30.3884 6.81688 30.3884C5.83036 30.3884 5.09046 30.742 4.59719 31.4493C4.11051 32.1499 3.86058 33.2403 3.84743 34.7203V35.8008C3.84743 37.3463 4.08091 38.476 4.54787 39.1899C5.0214 39.9036 5.76458 40.2606 6.77742 40.2606C7.6916 40.2606 8.3723 40.0542 8.81953 39.6417C9.27334 39.2226 9.53311 38.5775 9.59889 37.7065H12.5585ZM23.1735 34.1211H19.7503V42.4707H16.8894V34.1211H13.5253V31.8421H23.1735V34.1211ZM34.2227 37.2547C34.2227 38.8919 33.8478 40.2049 33.098 41.1937C32.3548 42.176 31.3485 42.6672 30.0793 42.6672C29.0006 42.6672 28.1291 42.2939 27.465 41.5473V46.5571H24.6138V31.8421H27.2578L27.3564 32.8834C28.0469 32.0583 28.9479 31.6457 30.0595 31.6457C31.3748 31.6457 32.3976 32.1302 33.1276 33.0995C33.8576 34.0687 34.2227 35.4046 34.2227 37.1073V37.2547ZM31.3715 37.0483C31.3715 36.0596 31.194 35.2966 30.8388 34.7596C30.4903 34.2226 29.9806 33.9541 29.3097 33.9541C28.4152 33.9541 27.8003 34.2947 27.465 34.9757V39.3273C27.8135 40.0281 28.435 40.3784 29.3295 40.3784C30.6909 40.3784 31.3715 39.2684 31.3715 37.0483ZM35.5544 37.0582C35.5544 36.0039 35.7583 35.0641 36.1661 34.239C36.5739 33.4139 37.1592 32.7753 37.9221 32.3235C38.6916 31.8716 39.5827 31.6457 40.5956 31.6457C42.0359 31.6457 43.2099 32.0844 44.1175 32.962C45.0316 33.8395 45.5413 35.0314 45.6466 36.5376L45.6664 37.2645C45.6664 38.8951 45.2092 40.2049 44.2951 41.1937C43.3808 42.176 42.1543 42.6672 40.6153 42.6672C39.0764 42.6672 37.8465 42.176 36.9257 41.1937C36.0115 40.2114 35.5544 38.8755 35.5544 37.1859V37.0582ZM38.4055 37.2645C38.4055 38.2729 38.5962 39.0457 38.9777 39.5827C39.3591 40.1131 39.9051 40.3784 40.6153 40.3784C41.3059 40.3784 41.8452 40.1165 42.2332 39.5925C42.6213 39.0621 42.8152 38.2173 42.8152 37.0582C42.8152 36.0694 42.6213 35.3031 42.2332 34.7596C41.8452 34.2161 41.2993 33.9443 40.5956 33.9443C39.8984 33.9443 39.3591 34.2161 38.9777 34.7596C38.5962 35.2966 38.4055 36.1315 38.4055 37.2645ZM53.8545 31.8421H56.7055V42.4707H53.8545V35.9089L50.2833 42.4707H47.4223V31.8421H50.2833V38.3941L53.8545 31.8421ZM55.5316 27.5298C55.5316 28.4008 55.2159 29.1048 54.5846 29.6418C53.9597 30.1788 53.1376 30.4473 52.1182 30.4473C51.0988 30.4473 50.2735 30.1821 49.6421 29.6516C49.0172 29.1212 48.7048 28.414 48.7048 27.5298H50.7273C50.7273 27.9424 50.8489 28.2633 51.0923 28.4925C51.3421 28.7152 51.6841 28.8265 52.1182 28.8265C52.5457 28.8265 52.8811 28.7152 53.1245 28.4925C53.3678 28.2633 53.4895 27.9424 53.4895 27.5298H55.5316Z" fill="white"/>
<path d="M9.5 54.5L43 0.5L98 32.5" stroke="#1E5C8D"/>
</g>
<defs>
<clipPath id="clip0">
<rect width="110" height="95" fill="white"/>
</clipPath>
</defs>
</svg>
