<svg width="40" height="40" viewBox="0 0 40 40" fill="none" xmlns="http://www.w3.org/2000/svg">
<path d="M20.0002 31.7071C20.8631 31.7071 21.5626 31.0076 21.5626 30.1447C21.5626 29.2818 20.8631 28.5823 20.0002 28.5823C19.1373 28.5823 18.4377 29.2818 18.4377 30.1447C18.4377 31.0076 19.1373 31.7071 20.0002 31.7071Z" fill="#546E83"/>
<path d="M24.3588 9.09985H15.6412C15.1525 9.09985 14.7549 9.47892 14.7549 9.94399V26.4229C14.7549 26.8884 15.1522 27.2671 15.6412 27.2671H24.3588C24.8475 27.2671 25.2451 26.888 25.2451 26.4229V9.94399C25.2448 9.47852 24.8475 9.09985 24.3588 9.09985Z" fill="#546E83"/>
<path d="M19.9995 0C8.95419 0 0 8.9548 0 19.9996C0 31.0444 8.95419 40 19.9995 40C31.0447 40 40 31.0449 40 19.9996C40 8.95427 31.0447 0 19.9995 0ZM27.7806 29.8695C27.7806 31.3972 26.5419 32.636 25.014 32.636H14.9854C13.4577 32.636 12.2189 31.3973 12.2189 29.8695V10.0431C12.2189 8.51533 13.4576 7.27653 14.9854 7.27653H25.014C26.5418 7.27653 27.7806 8.5152 27.7806 10.0431V29.8695Z" fill="#546E83"/>
</svg>
