<svg width="27" height="25" viewBox="0 0 27 25" fill="none" xmlns="http://www.w3.org/2000/svg">
<path d="M24.9119 10.573L16.5373 24L2.78789 16.0432" stroke="#1E5C8D" stroke-width="0.5"/>
<path d="M13.0289 14.9757C13.001 15.3584 12.8579 15.6596 12.5998 15.8794C12.3433 16.0993 12.0046 16.2092 11.5837 16.2092C11.1234 16.2092 10.7609 16.0561 10.4961 15.75C10.2331 15.4422 10.1016 15.0205 10.1016 14.4848V14.2674C10.1016 13.9254 10.1624 13.6242 10.284 13.3636C10.4057 13.1031 10.5792 12.9036 10.8044 12.7652C11.0313 12.6252 11.2944 12.5552 11.5936 12.5552C12.0079 12.5552 12.3417 12.6651 12.5949 12.8849C12.8481 13.1048 12.9944 13.4133 13.0339 13.8106H12.294C12.2759 13.581 12.211 13.4149 12.0992 13.3124C11.989 13.2082 11.8205 13.1561 11.5936 13.1561C11.347 13.1561 11.162 13.244 11.0387 13.4198C10.917 13.5941 10.8546 13.8652 10.8513 14.2332V14.5018C10.8513 14.8861 10.9096 15.167 11.0264 15.3445C11.1447 15.522 11.3305 15.6108 11.5837 15.6108C11.8123 15.6108 11.9824 15.5595 12.0942 15.4569C12.2077 15.3527 12.2726 15.1923 12.2891 14.9757H13.0289ZM14.6961 16.2092C14.3048 16.2092 13.9858 16.0903 13.7392 15.8526C13.4942 15.6148 13.3717 15.2981 13.3717 14.9024V14.834C13.3717 14.5686 13.4235 14.3317 13.5271 14.1233C13.6307 13.9132 13.777 13.752 13.9661 13.6397C14.1568 13.5257 14.3738 13.4687 14.6172 13.4687C14.9822 13.4687 15.2691 13.5827 15.4779 13.8106C15.6883 14.0386 15.7935 14.3618 15.7935 14.7803V15.0685H14.0943C14.1174 15.2411 14.1864 15.3795 14.3015 15.4837C14.4182 15.5879 14.5654 15.64 14.743 15.64C15.0175 15.64 15.2321 15.5415 15.3866 15.3445L15.7368 15.7329C15.63 15.8827 15.4853 15.9999 15.3028 16.0846C15.1203 16.1676 14.918 16.2092 14.6961 16.2092ZM14.6147 14.0402C14.4733 14.0402 14.3582 14.0874 14.2694 14.1819C14.1823 14.2763 14.1264 14.4115 14.1017 14.5873H15.0931V14.5312C15.0899 14.3748 15.0471 14.2543 14.9649 14.1697C14.8827 14.0834 14.766 14.0402 14.6147 14.0402ZM18.6026 14.8633C18.6026 15.2704 18.5088 15.5969 18.3214 15.8428C18.1356 16.087 17.8841 16.2092 17.5668 16.2092C17.2971 16.2092 17.0793 16.1163 16.9132 15.9307V17.1764H16.2005V13.5175H16.8614L16.8861 13.7764C17.0587 13.5713 17.2839 13.4687 17.5618 13.4687C17.8906 13.4687 18.1463 13.5892 18.3288 13.8302C18.5113 14.0712 18.6026 14.4033 18.6026 14.8267V14.8633ZM17.8898 14.812C17.8898 14.5662 17.8454 14.3765 17.7566 14.243C17.6695 14.1094 17.5421 14.0427 17.3744 14.0427C17.1508 14.0427 16.9971 14.1273 16.9132 14.2967V15.3787C17.0003 15.553 17.1557 15.64 17.3793 15.64C17.7197 15.64 17.8898 15.3641 17.8898 14.812ZM19.0933 16.1603V13.5175H20.208C20.5714 13.5175 20.8501 13.581 21.0441 13.708C21.2381 13.835 21.3351 14.0174 21.3351 14.2552C21.3351 14.3773 21.294 14.4872 21.2118 14.5849C21.1312 14.681 21.0129 14.7551 20.8567 14.8072C21.0474 14.843 21.197 14.9138 21.3055 15.0197C21.4157 15.1239 21.4707 15.2525 21.4707 15.4056C21.4707 15.6514 21.377 15.8387 21.1896 15.9674C21.0038 16.096 20.7334 16.1603 20.3782 16.1603H19.0933ZM19.8061 15.0636V15.5961H20.3807C20.6323 15.5961 20.758 15.509 20.758 15.3347C20.758 15.1572 20.638 15.0669 20.398 15.0636H19.8061ZM19.8061 14.5898H20.2475C20.4974 14.5865 20.6224 14.5067 20.6224 14.3504C20.6224 14.2543 20.5879 14.186 20.5188 14.1452C20.4514 14.1045 20.3478 14.0842 20.208 14.0842H19.8061V14.5898ZM23.5152 13.5175H24.228V16.1603H23.5152V14.5287L22.6225 16.1603H21.9073V13.5175H22.6225V15.1467L23.5152 13.5175ZM25.8828 15.64C26.0143 15.64 26.1212 15.6042 26.2034 15.5326C26.2856 15.4609 26.3284 15.3657 26.3316 15.2468H27C26.9984 15.4259 26.949 15.5904 26.852 15.7402C26.755 15.8884 26.6218 16.004 26.4525 16.087C26.2848 16.1684 26.099 16.2092 25.8951 16.2092C25.5137 16.2092 25.2128 16.0895 24.9925 15.8501C24.7722 15.6091 24.662 15.2769 24.662 14.8536V14.8072C24.662 14.4001 24.7713 14.0752 24.99 13.8326C25.2087 13.59 25.5088 13.4687 25.8902 13.4687C26.224 13.4687 26.4911 13.5631 26.6917 13.752C26.8939 13.9393 26.9967 14.1892 27 14.5018H26.3316C26.3284 14.3651 26.2856 14.2543 26.2034 14.1697C26.1212 14.0834 26.0127 14.0402 25.8779 14.0402C25.7118 14.0402 25.586 14.1005 25.5005 14.221C25.4167 14.3398 25.3747 14.5336 25.3747 14.8023V14.8756C25.3747 15.1475 25.4167 15.3429 25.5005 15.4617C25.5844 15.5806 25.7118 15.64 25.8828 15.64Z" fill="white"/>
<path d="M11.0374 3.61084L22.6618 10.2L17.4121 18.6541" stroke="#1E5C8D" stroke-width="0.5"/>
<path d="M15.7871 21.3891L4.1626 14.6756L9.53735 5.9729" stroke="#1E5C8D" stroke-width="0.5"/>
<path d="M2.92739 10.2513C2.89944 10.6339 2.75639 10.9351 2.49827 11.155C2.24178 11.3748 1.90309 11.4847 1.48219 11.4847C1.02183 11.4847 0.659299 11.3317 0.394593 11.0255C0.131531 10.7178 0 10.296 0 9.76032V9.54294C0 9.20098 0.0608331 8.89974 0.182499 8.63921C0.304164 8.37867 0.477622 8.1792 0.702868 8.0408C0.929761 7.90077 1.19282 7.83074 1.49205 7.83074C1.90638 7.83074 2.24014 7.94067 2.49333 8.16049C2.74652 8.38031 2.89285 8.68887 2.93233 9.08618H2.19246C2.17437 8.85661 2.10943 8.69051 1.99763 8.58793C1.88747 8.48372 1.71895 8.43161 1.49205 8.43161C1.24543 8.43161 1.06047 8.51954 0.937157 8.6954C0.815492 8.86961 0.753014 9.14073 0.749725 9.50873V9.77741C0.749725 10.1617 0.808093 10.4426 0.924828 10.6201C1.0432 10.7976 1.22899 10.8863 1.48219 10.8863C1.71072 10.8863 1.88089 10.835 1.99269 10.7324C2.10614 10.6282 2.17108 10.4678 2.18752 10.2513H2.92739ZM5.58102 9.35975H4.72525V11.4359H4.01006V9.35975H3.16907V8.79308H5.58102V9.35975ZM8.34318 10.1389C8.34318 10.546 8.24946 10.8725 8.06202 11.1183C7.87624 11.3626 7.62468 11.4847 7.30738 11.4847C7.03772 11.4847 6.81987 11.3919 6.65383 11.2063V12.4519H5.94108V8.79308H6.60204L6.6267 9.052C6.79933 8.84683 7.02456 8.74425 7.30244 8.74425C7.63125 8.74425 7.88693 8.86472 8.06943 9.10572C8.25193 9.34671 8.34318 9.67889 8.34318 10.1023V10.1389ZM7.63043 10.0876C7.63043 9.84174 7.58604 9.65204 7.49726 9.51851C7.41013 9.38498 7.28271 9.31823 7.115 9.31823C6.89139 9.31823 6.73768 9.40291 6.65383 9.57223V10.6543C6.74096 10.8285 6.89633 10.9156 7.11994 10.9156C7.46028 10.9156 7.63043 10.6396 7.63043 10.0876ZM8.67612 10.09C8.67612 9.8279 8.72707 9.59421 8.82901 9.38907C8.93095 9.18389 9.07729 9.02513 9.26801 8.91277C9.46036 8.80042 9.68313 8.74425 9.93634 8.74425C10.2964 8.74425 10.5899 8.85333 10.8168 9.07154C11.0453 9.28972 11.1727 9.5861 11.199 9.9606L11.204 10.1413C11.204 10.5468 11.0897 10.8725 10.8612 11.1183C10.6326 11.3626 10.326 11.4847 9.94128 11.4847C9.55655 11.4847 9.2491 11.3626 9.01892 11.1183C8.79037 10.8741 8.67612 10.5419 8.67612 10.1218V10.09ZM9.38884 10.1413C9.38884 10.3921 9.43651 10.5842 9.53189 10.7178C9.62723 10.8497 9.76372 10.9156 9.94128 10.9156C10.1139 10.9156 10.2487 10.8505 10.3457 10.7202C10.4427 10.5883 10.4912 10.3783 10.4912 10.09C10.4912 9.84419 10.4427 9.65366 10.3457 9.51851C10.2487 9.38337 10.1123 9.31578 9.93634 9.31578C9.76206 9.31578 9.62723 9.38337 9.53189 9.51851C9.43651 9.65204 9.38884 9.85964 9.38884 10.1413ZM13.2509 8.79308H13.9636V11.4359H13.2509V9.80428L12.3582 11.4359H11.6429V8.79308H12.3582V10.4222L13.2509 8.79308ZM13.6702 7.72083C13.6702 7.93739 13.5913 8.11244 13.4334 8.24598C13.2772 8.37951 13.0717 8.44626 12.8169 8.44626C12.562 8.44626 12.3557 8.38031 12.1979 8.24842C12.0417 8.11653 11.9636 7.94067 11.9636 7.72083H12.4691C12.4691 7.82343 12.4996 7.90321 12.5604 7.96021C12.6229 8.01557 12.7084 8.04325 12.8169 8.04325C12.9237 8.04325 13.0076 8.01557 13.0684 7.96021C13.1293 7.90321 13.1597 7.82343 13.1597 7.72083H13.6702Z" fill="white"/>
<path d="M2.16284 14.427L10.5375 1L24.2868 8.95676" stroke="#1E5C8D" stroke-width="0.5"/>
</svg>
